<?xml version="1.0" encoding="utf-8"?>
<!-- Generator: Adobe Illustrator 19.1.0, SVG Export Plug-In . SVG Version: 6.00 Build 0)  -->
<svg version="1.1" id="Layer_1" xmlns="http://www.w3.org/2000/svg" xmlns:xlink="http://www.w3.org/1999/xlink" x="0px" y="0px"
	 viewBox="0 0 612 792" style="enable-background:new 0 0 612 792;" xml:space="preserve">
<style type="text/css">
	.st0{fill:#FBE3BA;}
	.st1{fill:#FFFFFF;}
	.st2{fill:#F47521;}
	.st3{fill:#58595B;}
	.st4{fill:#9ECC3B;}
	.st5{fill:#587D38;}
	.st6{fill:#424143;}
	.st7{fill:none;}
</style>
<g>
	<path class="st0" d="M325,272.1c-0.7,3.4,1.5,6.7,4.9,7.4c63,12.9,103.8,74.7,91,137.7c-0.7,3.4,1.5,6.7,4.9,7.4
		c3.4,0.7,6.7-1.5,7.4-4.9l0,0c14.2-69.7-31-138.1-100.7-152.4C329,266.5,325.7,268.7,325,272.1z"/>
	<path class="st1" d="M305.7,253C305.7,253,305.7,253,305.7,253L305.7,253C305.7,253,305.7,253,305.7,253
		c-36.9,0-71.5,14.4-97.6,40.5c-26.1,26.1-40.4,60.7-40.5,97.5l0,0l0,0c0,0.1,0,0.2,0,0.4c0,0.1,0,0.3,0,0.4c0,0.1,0,0.2,0,0.3
		c0,0.2,0,0.3,0,0.5c0,0.1,0,0.2,0,0.3c0,0.2,0,0.3,0.1,0.5c0,0.1,0,0.2,0,0.3c0,0.2,0,0.3,0.1,0.5c0,0.1,0,0.2,0.1,0.2
		c0,0.2,0.1,0.3,0.1,0.5c0,0.1,0,0.2,0.1,0.2c0,0.2,0.1,0.3,0.1,0.5c0,0.1,0,0.2,0.1,0.2c0,0.2,0.1,0.3,0.2,0.5
		c0,0.1,0.1,0.1,0.1,0.2c0.1,0.2,0.1,0.3,0.2,0.5c0,0.1,0.1,0.1,0.1,0.2c0.1,0.1,0.1,0.3,0.2,0.4c0,0.1,0.1,0.1,0.1,0.2
		c0.1,0.1,0.1,0.3,0.2,0.4c0,0.1,0.1,0.1,0.1,0.2c0.1,0.2,0.2,0.3,0.3,0.4c0,0.1,0.1,0.1,0.1,0.2c0.1,0.1,0.2,0.3,0.3,0.4
		c0,0.1,0.1,0.1,0.1,0.2c0.1,0.1,0.2,0.3,0.3,0.4c0,0.1,0.1,0.1,0.1,0.2c0.1,0.1,0.2,0.3,0.3,0.4c0,0.1,0.1,0.1,0.1,0.2
		c0.1,0.1,0.2,0.3,0.3,0.4c0,0,0.1,0.1,0.1,0.1c0.1,0.1,0.2,0.3,0.4,0.4c0,0,0.1,0.1,0.2,0.1c0.1,0.1,0.2,0.2,0.4,0.4
		c0.1,0,0.1,0.1,0.2,0.1c0.1,0.1,0.3,0.2,0.4,0.3c0,0,0.1,0.1,0.1,0.1c0.1,0.1,0.3,0.2,0.4,0.3c0.1,0,0.1,0.1,0.2,0.1
		c0.1,0.1,0.3,0.2,0.4,0.3c0,0,0.1,0.1,0.2,0.1c0.1,0.1,0.3,0.2,0.4,0.3c0.1,0,0.1,0.1,0.2,0.1c0.1,0.1,0.3,0.2,0.5,0.3
		c0.1,0,0.1,0.1,0.2,0.1c0.2,0.1,0.3,0.2,0.5,0.2c0.1,0,0.1,0.1,0.2,0.1c0.2,0.1,0.3,0.1,0.5,0.2c0.1,0,0.1,0.1,0.2,0.1
		c0.2,0.1,0.3,0.1,0.5,0.2c0.1,0,0.2,0,0.2,0.1c0.2,0,0.3,0.1,0.5,0.2c0.1,0,0.2,0,0.3,0.1c0.2,0,0.3,0.1,0.5,0.1
		c0.1,0,0.2,0,0.3,0.1c0.1,0,0.3,0.1,0.4,0.1c0.1,0,0.2,0,0.3,0.1c0.1,0,0.3,0,0.4,0.1c0.1,0,0.2,0,0.4,0c0.1,0,0.3,0,0.4,0.1
		c0.1,0,0.2,0,0.4,0c0.1,0,0.3,0,0.4,0c0.1,0,0.2,0,0.4,0c0.1,0,0.3,0,0.4,0c0,0,0,0,0,0l0,0h75.8v40.7c0,0,0,0,0,0
		c0,0.2,0,0.5,0,0.7c0,0,0,0,0,0.1c0,0.2,0,0.5,0,0.7c0,0,0,0,0,0c0,0.2,0.1,0.5,0.1,0.7c0,0,0,0,0,0.1c0,0.2,0.1,0.4,0.1,0.6
		c0,0,0,0.1,0,0.1c0,0.2,0.1,0.4,0.1,0.5c0,0.1,0,0.1,0,0.2c0,0.1,0.1,0.3,0.1,0.4c0,0.1,0.1,0.2,0.1,0.3c0,0.1,0.1,0.2,0.1,0.3
		c0,0.1,0.1,0.3,0.1,0.4c0,0.1,0,0.1,0.1,0.2c0.1,0.2,0.1,0.4,0.2,0.5c0,0,0,0.1,0.1,0.1c0.1,0.2,0.2,0.4,0.3,0.6c0,0,0,0.1,0,0.1
		c0.1,0.2,0.2,0.4,0.3,0.6c0,0,0,0.1,0.1,0.1c0.1,0.2,0.2,0.4,0.3,0.5c0,0,0,0,0,0.1c0,0,0,0,0,0.1c0.1,0.2,0.3,0.4,0.4,0.6
		c0,0.1,0.1,0.1,0.1,0.2c0.2,0.2,0.3,0.5,0.5,0.7c0.1,0.1,0.1,0.1,0.2,0.2c0.1,0.1,0.2,0.3,0.4,0.4c0.1,0.1,0.2,0.2,0.3,0.3
		c0.1,0.1,0.2,0.2,0.3,0.3c0.1,0.1,0.2,0.2,0.4,0.3c0,0,0.1,0.1,0.2,0.1c0.2,0.2,0.5,0.4,0.8,0.6c0.1,0.1,0.2,0.1,0.3,0.2
		c0.1,0.1,0.3,0.2,0.4,0.3c0.1,0.1,0.2,0.2,0.4,0.2c0.1,0.1,0.2,0.1,0.3,0.2c0.2,0.1,0.5,0.3,0.7,0.4c0,0,0,0,0,0
		c0.3,0.1,0.5,0.3,0.8,0.4c0,0,0.1,0,0.1,0.1c0.2,0.1,0.5,0.2,0.7,0.3c0,0,0.1,0,0.1,0c0.8,0.3,1.7,0.6,2.6,0.7c0,0,0.1,0,0.1,0
		c0.2,0,0.5,0.1,0.7,0.1c0.1,0,0.2,0,0.3,0c0.2,0,0.4,0,0.6,0.1c0.1,0,0.2,0,0.3,0c0.2,0,0.3,0,0.5,0c0.1,0,0.2,0,0.4,0
		c0.1,0,0.2,0,0.3,0c0.2,0,0.4,0,0.5,0c0.1,0,0.3,0,0.4,0c0.2,0,0.3,0,0.5-0.1c0.1,0,0.3,0,0.4,0c0.3,0,0.6-0.1,0.8-0.1
		c0.1,0,0.1,0,0.2,0c0.2,0,0.5-0.1,0.7-0.2c0.1,0,0.2,0,0.3-0.1c0.3-0.1,0.5-0.2,0.8-0.3c0,0,0,0,0.1,0c0.3-0.1,0.6-0.2,0.9-0.4
		c0,0,0.1,0,0.1-0.1c0.3-0.1,0.6-0.3,0.9-0.4c0,0,0,0,0,0c0.3-0.2,0.6-0.3,0.9-0.5c0,0,0,0,0,0l88.8-55.8c0.2-0.1,0.4-0.3,0.6-0.4
		c0,0,0.1-0.1,0.2-0.1c0.1-0.1,0.3-0.2,0.4-0.3c0.1-0.1,0.2-0.1,0.3-0.2c0.1-0.1,0.2-0.2,0.3-0.3c0.1-0.1,0.3-0.2,0.4-0.3
		c0.1-0.1,0.2-0.1,0.3-0.2c0.4-0.4,0.9-0.9,1.2-1.3c0,0,0,0,0.1-0.1c0.2-0.2,0.4-0.5,0.5-0.7c0,0,0,0,0,0c0.5-0.7,0.9-1.4,1.3-2.1
		c0-0.1,0.1-0.2,0.1-0.2c0.1-0.1,0.1-0.3,0.2-0.4c0.1-0.2,0.1-0.3,0.2-0.5c0-0.1,0-0.1,0.1-0.2c0.1-0.2,0.2-0.4,0.2-0.6c0,0,0,0,0,0
		c0.2-0.7,0.4-1.4,0.5-2.1l0,0c0-0.2,0.1-0.4,0.1-0.7c0,0,0,0,0-0.1c0-0.2,0-0.4,0.1-0.6c0-0.1,0-0.1,0-0.2c0-0.2,0-0.3,0-0.5
		c0-0.1,0-0.2,0-0.3c0-0.1,0-0.3,0-0.4c0-0.1,0-0.3,0-0.4c0-0.1,0-0.2,0-0.3c0-0.2,0-0.3,0-0.5c0-0.1,0-0.1,0-0.2
		c0-0.2,0-0.4-0.1-0.6c0,0,0,0,0-0.1c0-0.2-0.1-0.4-0.1-0.7v0c-0.1-0.7-0.3-1.4-0.5-2.1c0,0,0,0,0,0c-0.1-0.2-0.1-0.4-0.2-0.6
		c0-0.1,0-0.1-0.1-0.2c-0.1-0.2-0.1-0.3-0.2-0.5c-0.1-0.1-0.1-0.3-0.2-0.4c0-0.1-0.1-0.2-0.1-0.2c-0.7-1.3-1.5-2.6-2.6-3.7
		c-0.1-0.1-0.2-0.2-0.2-0.3c-0.1-0.1-0.2-0.2-0.3-0.3c-0.8-0.7-1.6-1.4-2.5-1.9l-88.8-55.8c-7.1-4.4-16.4-2.3-20.8,4.8
		c-4.4,7-2.3,16.4,4.7,20.8l68.6,43.1l-45.5,28.5V391c0-8.1-6.3-14.7-14.3-15.1c-0.3,0-0.5,0-0.8,0h-74.7
		c3.2-23.1,13.8-44.4,30.6-61.2c20.4-20.4,47.4-31.6,76.2-31.6c28.8,0,55.9,11.3,76.2,31.6c20.4,20.4,31.6,47.4,31.6,76.2
		c0,5.8,3.3,10.8,8.1,13.3c-3,26.1-14.6,50.3-33.5,69.1c-22,22-51.3,34.2-82.5,34.2c-3.5,0-6.3,2.8-6.3,6.3s2.8,6.3,6.3,6.3h0
		c34.5,0,66.9-13.5,91.3-37.9c21-21.1,33.9-48.1,37.1-77.3c5.6-2.2,9.6-7.7,9.6-14.1c0-36.8-14.4-71.5-40.5-97.5
		C377.2,267.4,342.5,253,305.7,253z"/>
	<path class="st2" d="M428.6,406.1c-8.3,0-15.1-6.7-15.1-15.1c-0.1-59.4-48.5-107.8-107.9-107.9c-8.3,0-15.1-6.8-15.1-15.1
		c0-8.3,6.8-15.1,15.1-15.1c0,0,0,0,0,0c76,0.1,137.9,62,138,138C443.7,399.3,437,406.1,428.6,406.1
		C428.6,406.1,428.6,406.1,428.6,406.1z"/>
	<g>
		<path class="st3" d="M182.7,406.1C182.7,406.1,182.7,406.1,182.7,406.1c-8.3,0-15.1-6.8-15.1-15.1c0.1-76,62-137.9,138-138
			c0,0,0,0,0,0c8.3,0,15.1,6.7,15.1,15.1c0,8.3-6.7,15.1-15.1,15.1c-59.4,0.1-107.8,48.5-107.9,107.9
			C197.8,399.4,191,406.1,182.7,406.1z"/>
	</g>
	<g>
		<path class="st4" d="M362.5,406.1c-2.7,0-5.5-0.7-8-2.3L265.6,348c-7.1-4.4-9.2-13.7-4.7-20.8c4.4-7.1,13.7-9.2,20.8-4.8
			l88.9,55.8c7.1,4.4,9.2,13.7,4.8,20.8C372.4,403.6,367.5,406.1,362.5,406.1z"/>
	</g>
	<g>
		<path class="st4" d="M273.6,461.9c-5,0-9.9-2.5-12.8-7.1c-4.4-7.1-2.3-16.4,4.7-20.8l88.9-55.8c7.1-4.4,16.4-2.3,20.8,4.8
			c4.4,7.1,2.3,16.4-4.8,20.8l-88.9,55.8C279.1,461.2,276.3,461.9,273.6,461.9z"/>
	</g>
	<g>
		<path class="st4" d="M273.6,461.9c-8.3,0-15.1-6.8-15.1-15.1V391c0-8.3,6.7-15.1,15.1-15.1c8.3,0,15.1,6.8,15.1,15.1v55.8
			C288.7,455.2,281.9,461.9,273.6,461.9z"/>
	</g>
	<g>
		<path class="st5" d="M273.6,406.1h-90.9c-8.3,0-15.1-6.8-15.1-15.1c0-8.3,6.8-15.1,15.1-15.1h90.9c8.3,0,15.1,6.8,15.1,15.1
			C288.7,399.4,281.9,406.1,273.6,406.1z"/>
	</g>
	<g>
		<g>
			<path class="st6" d="M198.4,438.8l-17.9,6.8l-2.7-7l23.6-9l4.8,12.6l-5.7,2.2L198.4,438.8z M193.5,426.3l5.7-2.2l1.6,4.3
				l-5.7,2.2L193.5,426.3z"/>
			<path class="st6" d="M196.8,459.2l-3.1-5.5c-2.1,1.4-2.8,2.7-2.3,4.3l-4,2.3c-3.6-7.3,0.1-11.1,4.2-13.4
				c4.1-2.3,9.4-3.5,13.7,3.2l-4,2.3c-1-1.3-2.1-1.6-4.4-0.5l3.1,5.5c1.9-1.3,2.5-2.3,1.9-3.8l4-2.3c4.8,8.8-2.4,12.3-5.6,14.1
				L196.8,459.2z M188.1,461.5l4-2.3c1,1.3,2.1,1.4,3.1,0.9l3.6,6.4C195.3,468.2,191.5,467.3,188.1,461.5z"/>
			<path class="st6" d="M203.2,466.9c3.7-3.1,8.7-5.3,14,0.6l-4.5,3.8c-1.2-1.1-2.8-1-5,0.8c-2.2,1.8-2.6,3.4-1.7,4.8l-4.6,3.9
				C196.6,474.5,199.6,470,203.2,466.9z M202.3,481.8l4.6-3.9c0.9,0.8,2.3,1.1,3.8-0.2l4.6,5.5C210.9,486.9,206.1,486,202.3,481.8z
				 M212.7,476.1c1.7-1.5,1.6-2.8,0.9-3.9l4.5-3.8c3.6,4.6,3.5,9.4-0.9,13.1L212.7,476.1z"/>
			<path class="st6" d="M225.1,488.7l-7,8.4l-5.7-4.6l17.7-21.6l5.7,4.6l-6,7.4c0.7-0.2,1.5-0.1,2.3,0.1l-3.4,4.2
				C227.5,486.5,226.7,486.8,225.1,488.7z M223.4,501.5l-1.5-1.2l6.9-8.5c1.7-2,1.7-2.8,0.8-3.8l3.7-4.5c0.5,0.2,1,0.5,1.3,0.8
				c5.3,4.3,3.3,7.9,0.1,11.8l-7.1,8.7L223.4,501.5z"/>
			<path class="st6" d="M244.4,501.9l-5.4,9.9l-6.5-3.5l9.6-17.7l3.6,2l-0.1,2.7c1.3-0.6,2.8-0.7,4.5-0.3l-2.7,5
				C246.3,499.4,245.5,499.9,244.4,501.9z M245,515l-1.7-0.9l5.4-9.9c1.1-2.1,1.1-3,0-3.7l2.8-5.2c0.3,0.1,0.7,0.3,1,0.5
				c6.2,3.4,5.2,7.2,2.8,11.6l-5.5,10.1L245,515z"/>
			<path class="st6" d="M257.5,510c1.5-4.5,4.7-9,12.2-6.9l-1.8,5.7c-1.8-0.4-3,0.6-3.9,3.3c-0.9,2.8-0.5,4.3,1.2,5.1l-1.8,5.6
				C256,520.2,256,514.7,257.5,510z M264.6,523.2l1.8-5.6c1.8,0.3,2.9-0.7,3.8-3.4c0.9-2.7,0.6-4.1-1.1-4.9l1.8-5.7
				c7.2,2.6,7.2,8.2,5.8,12.7C275.3,520.9,272,525.3,264.6,523.2z"/>
			<path class="st6" d="M280.5,526.9l-2.1-0.4l4.9-27.5l7.1,1.3l-4.9,27.5L280.5,526.9z"/>
			<path class="st6" d="M290.5,518.7c0.2-4.7,2.1-9.9,9.9-9.9l-0.2,6c-1.9,0.1-2.7,1.4-2.9,4.2c-0.1,2.9,0.7,4.3,2.5,4.6l-0.2,5.9
				C291.8,528.8,290.3,523.5,290.5,518.7z M300.9,529.5l0.2-5.9c1.8-0.2,2.7-1.4,2.8-4.4c0.1-2.8-0.5-4.1-2.4-4.4l0.2-6
				c7.6,0.6,9.2,5.9,9,10.7C310.5,524.3,308.5,529.4,300.9,529.5z"/>
			<path class="st6" d="M326.1,536.2l-0.7-5c2-0.3,2.4-1.2,2.3-2.1c-0.4-2.8-13.1,1.7-13.9-3.5c-0.2-1.8,1.1-3.1,3.3-3.8
				c-2.7-0.4-3.8-3.5-4-4.7c-0.5-3.7,0.6-7.5,7.8-9l0.7,5.2c-1.3,0.3-1.5,1.2-1.3,2.6c0.2,1.6,0.7,2.5,2,2.4l0.6,4.2
				c-0.2,0-0.5,0.1-0.7,0.1c-0.9,0.1-1.4,0.6-1.3,1c0.1,0.5,0.6,0.6,2.1,0.6c4-0.2,7-0.2,8.8,0.3c2,0.5,3,1.7,3.3,3.9
				C335.5,531.6,334,535.1,326.1,536.2z M314.4,530.4l7.2-1c0.1,0.7,0.5,1.8,2.6,1.9l0.7,5.1C317.5,537.2,315,535,314.4,530.4z
				 M332.3,510.3l-3,1c1.7,0.5,2.8,1.9,3,3.7c0.5,3.4-0.9,5.9-8.1,7.3l-0.6-4.1c1.2-0.4,1.5-1.2,1.2-2.9c-0.2-1.4-0.5-2.2-1.9-2.2
				l-0.7-5.2l0.4,0l9.3-1.3L332.3,510.3z"/>
			<path class="st6" d="M346.5,523.2c-6.8,2.3-8.5-1.4-10.1-6.2l-3.6-10.7l5.1-1.7l1.9-0.6l3.5,10.4c0.8,2.4,1.4,2.9,2.7,2.6
				l1.9,5.6C347.4,522.8,346.9,523,346.5,523.2z M339.6,526.9l6.7-2.2c0.4,1.2,0.9,2.1,2.8,1.7l1.4,4.2
				C343.2,532.8,340.9,530.9,339.6,526.9z M351.7,530.2l-1.4-4.2c1.6-0.7,1.3-2.2,0.8-3.9l-0.7-2.2c-0.2,0.7-0.7,1.3-1.4,1.9
				l-1.7-5.1c1.3-0.6,1.6-1.4,0.7-3.9l-3.4-10.4l7-2.3l6.3,18.9C359,522.7,359.2,527.4,351.7,530.2z"/>
			<path class="st6" d="M365.7,489.9c-2.2,1.4-4.1,2.1-5.9-0.7c-1.8-2.8-0.3-4.2,1.9-5.6c2.3-1.4,4.1-2.1,5.8,0.7
				C369.3,487,368,488.5,365.7,489.9z M376.2,509.4l-1.9,1.2l-10.7-17.1l6.3-4l10.7,17.1L376.2,509.4z"/>
			<path class="st6" d="M383.5,490.6l7.2,8.6L385,504l-12.9-15.4l3.2-2.7l2.5,1c0-1.5,0.4-2.9,1.4-4.3l3.6,4.3
				C381.9,487.9,382.1,488.9,383.5,490.6z M396,494.8l-1.5,1.3l-7.2-8.6c-1.5-1.8-2.4-2.1-3.4-1.3l-3.8-4.5c0.2-0.3,0.5-0.5,0.9-0.8
				c5.4-4.6,8.6-2.2,11.8,1.7l7.4,8.8L396,494.8z"/>
			<path class="st6" d="M421.8,463.7l-18.7-6.1l6.4,7.2l2.1-3.1l5.5,1.8l-3.7,5.6l2.7,3.4l-4.3,6.6l-16.2-21.3l4.8-7.4l25.9,6.7
				L421.8,463.7z"/>
			<path class="st6" d="M433.6,438.5l-19.6-2.1l7.7,5.8l1.4-3.5l5.7,0.6l-2.4,6.2l3.4,2.8l-2.9,7.4L406.6,438l3.2-8.2l26.7,1.2
				L433.6,438.5z"/>
		</g>
	</g>
	<rect id="_x3C_Slice_x3E__1_" x="166.3" y="241.9" class="st7" width="277.8" height="300"/>
	<rect id="_x3C_Slice_x3E_" x="166" y="241" class="st7" width="279" height="301"/>
</g>
<g>
	<path class="st0" d="M356.4,70c-0.1,0.4,0.2,0.9,0.6,1c8.2,1.7,13.5,9.7,11.8,17.9c-0.1,0.4,0.2,0.9,0.6,1c0.4,0.1,0.9-0.2,1-0.6
		l0,0c1.8-9-4-17.9-13.1-19.8C356.9,69.3,356.5,69.6,356.4,70z"/>
	<path class="st1" d="M353.9,67.5C353.9,67.5,353.9,67.5,353.9,67.5L353.9,67.5C353.9,67.5,353.9,67.5,353.9,67.5
		c-4.8,0-9.3,1.9-12.7,5.3c-3.4,3.4-5.2,7.9-5.3,12.7l0,0l0,0c0,0,0,0,0,0c0,0,0,0,0,0.1c0,0,0,0,0,0c0,0,0,0,0,0.1c0,0,0,0,0,0
		c0,0,0,0,0,0.1c0,0,0,0,0,0c0,0,0,0,0,0.1c0,0,0,0,0,0c0,0,0,0,0,0.1c0,0,0,0,0,0c0,0,0,0,0,0.1c0,0,0,0,0,0c0,0,0,0,0,0.1
		c0,0,0,0,0,0c0,0,0,0,0,0.1c0,0,0,0,0,0c0,0,0,0,0,0.1c0,0,0,0,0,0c0,0,0,0,0,0.1c0,0,0,0,0,0c0,0,0,0,0,0.1c0,0,0,0,0,0
		c0,0,0,0,0,0.1c0,0,0,0,0,0c0,0,0,0,0,0.1c0,0,0,0,0,0c0,0,0,0,0,0.1c0,0,0,0,0,0c0,0,0,0,0,0c0,0,0,0,0,0c0,0,0,0,0,0c0,0,0,0,0,0
		c0,0,0,0,0,0c0,0,0,0,0,0c0,0,0,0,0.1,0c0,0,0,0,0,0c0,0,0,0,0.1,0c0,0,0,0,0,0c0,0,0,0,0.1,0c0,0,0,0,0,0c0,0,0,0,0.1,0
		c0,0,0,0,0,0c0,0,0,0,0.1,0c0,0,0,0,0,0c0,0,0,0,0.1,0c0,0,0,0,0,0c0,0,0,0,0.1,0c0,0,0,0,0,0c0,0,0,0,0.1,0c0,0,0,0,0,0
		c0,0,0,0,0.1,0c0,0,0,0,0,0c0,0,0,0,0.1,0c0,0,0,0,0,0c0,0,0,0,0.1,0c0,0,0,0,0,0c0,0,0,0,0.1,0c0,0,0,0,0,0c0,0,0,0,0.1,0
		c0,0,0,0,0,0c0,0,0,0,0.1,0c0,0,0,0,0,0c0,0,0,0,0.1,0c0,0,0,0,0,0l0,0h9.8v5.3c0,0,0,0,0,0c0,0,0,0.1,0,0.1c0,0,0,0,0,0
		c0,0,0,0.1,0,0.1c0,0,0,0,0,0c0,0,0,0.1,0,0.1c0,0,0,0,0,0c0,0,0,0.1,0,0.1c0,0,0,0,0,0c0,0,0,0,0,0.1c0,0,0,0,0,0c0,0,0,0,0,0.1
		c0,0,0,0,0,0c0,0,0,0,0,0c0,0,0,0,0,0.1c0,0,0,0,0,0c0,0,0,0,0,0.1c0,0,0,0,0,0c0,0,0,0,0,0.1c0,0,0,0,0,0c0,0,0,0,0,0.1
		c0,0,0,0,0,0c0,0,0,0,0,0.1c0,0,0,0,0,0c0,0,0,0,0,0c0,0,0,0.1,0.1,0.1c0,0,0,0,0,0c0,0,0,0.1,0.1,0.1c0,0,0,0,0,0c0,0,0,0,0,0.1
		c0,0,0,0,0,0c0,0,0,0,0,0c0,0,0,0,0,0c0,0,0,0,0,0c0,0,0.1,0.1,0.1,0.1c0,0,0,0,0,0c0,0,0,0,0,0c0,0,0,0,0,0c0,0,0,0,0,0
		c0,0,0.1,0,0.1,0.1c0,0,0,0,0,0c0,0,0.1,0,0.1,0.1c0,0,0,0,0,0c0,0,0.1,0,0.1,0c0,0,0,0,0,0c0.1,0,0.2,0.1,0.3,0.1c0,0,0,0,0,0
		c0,0,0.1,0,0.1,0c0,0,0,0,0,0c0,0,0,0,0.1,0c0,0,0,0,0,0c0,0,0,0,0.1,0c0,0,0,0,0,0c0,0,0,0,0,0c0,0,0,0,0.1,0c0,0,0,0,0.1,0
		c0,0,0,0,0.1,0c0,0,0,0,0.1,0c0,0,0.1,0,0.1,0c0,0,0,0,0,0c0,0,0.1,0,0.1,0c0,0,0,0,0,0c0,0,0.1,0,0.1,0c0,0,0,0,0,0
		c0,0,0.1,0,0.1,0c0,0,0,0,0,0c0,0,0.1,0,0.1-0.1c0,0,0,0,0,0c0,0,0.1,0,0.1-0.1c0,0,0,0,0,0l11.5-7.2c0,0,0.1,0,0.1-0.1
		c0,0,0,0,0,0c0,0,0,0,0.1,0c0,0,0,0,0,0c0,0,0,0,0,0c0,0,0,0,0,0c0,0,0,0,0,0c0.1-0.1,0.1-0.1,0.2-0.2c0,0,0,0,0,0
		c0,0,0-0.1,0.1-0.1c0,0,0,0,0,0c0.1-0.1,0.1-0.2,0.2-0.3c0,0,0,0,0,0c0,0,0,0,0-0.1c0,0,0,0,0-0.1c0,0,0,0,0,0c0,0,0-0.1,0-0.1
		c0,0,0,0,0,0c0-0.1,0.1-0.2,0.1-0.3l0,0c0,0,0-0.1,0-0.1c0,0,0,0,0,0c0,0,0-0.1,0-0.1c0,0,0,0,0,0c0,0,0,0,0-0.1c0,0,0,0,0,0
		c0,0,0,0,0,0c0,0,0,0,0,0c0,0,0,0,0,0c0,0,0,0,0-0.1c0,0,0,0,0,0c0,0,0-0.1,0-0.1c0,0,0,0,0,0c0,0,0-0.1,0-0.1v0
		c0-0.1,0-0.2-0.1-0.3c0,0,0,0,0,0c0,0,0-0.1,0-0.1c0,0,0,0,0,0c0,0,0,0,0-0.1c0,0,0,0,0-0.1c0,0,0,0,0,0c-0.1-0.2-0.2-0.3-0.3-0.5
		c0,0,0,0,0,0c0,0,0,0,0,0c-0.1-0.1-0.2-0.2-0.3-0.2l-11.5-7.2c-0.9-0.6-2.1-0.3-2.7,0.6c-0.6,0.9-0.3,2.1,0.6,2.7l8.9,5.6l-5.9,3.7
		v-3.7c0-1-0.8-1.9-1.9-2c0,0-0.1,0-0.1,0h-9.7c0.4-3,1.8-5.8,4-7.9c2.6-2.6,6.2-4.1,9.9-4.1c3.7,0,7.2,1.5,9.9,4.1
		c2.6,2.6,4.1,6.2,4.1,9.9c0,0.8,0.4,1.4,1,1.7c-0.4,3.4-1.9,6.5-4.3,9c-2.9,2.9-6.7,4.4-10.7,4.4c-0.4,0-0.8,0.4-0.8,0.8
		s0.4,0.8,0.8,0.8h0c4.5,0,8.7-1.7,11.8-4.9c2.7-2.7,4.4-6.2,4.8-10c0.7-0.3,1.2-1,1.2-1.8c0-4.8-1.9-9.3-5.2-12.7
		C363.2,69.4,358.7,67.5,353.9,67.5z"/>
	<path class="st2" d="M369.9,87.4c-1.1,0-2-0.9-2-2c0-7.7-6.3-14-14-14c-1.1,0-2-0.9-2-2c0-1.1,0.9-2,2-2c0,0,0,0,0,0
		c9.9,0,17.9,8,17.9,17.9C371.8,86.5,370.9,87.4,369.9,87.4C369.9,87.4,369.9,87.4,369.9,87.4z"/>
	<g>
		<path class="st3" d="M338,87.4C338,87.4,338,87.4,338,87.4c-1.1,0-2-0.9-2-2c0-9.9,8-17.9,17.9-17.9c0,0,0,0,0,0c1.1,0,2,0.9,2,2
			c0,1.1-0.9,2-2,2c-7.7,0-14,6.3-14,14C339.9,86.5,339,87.4,338,87.4z"/>
	</g>
	<g>
		<path class="st4" d="M361.3,87.4c-0.4,0-0.7-0.1-1-0.3l-11.5-7.2c-0.9-0.6-1.2-1.8-0.6-2.7c0.6-0.9,1.8-1.2,2.7-0.6l11.5,7.2
			c0.9,0.6,1.2,1.8,0.6,2.7C362.6,87.1,361.9,87.4,361.3,87.4z"/>
	</g>
	<g>
		<path class="st4" d="M349.7,94.6c-0.7,0-1.3-0.3-1.7-0.9c-0.6-0.9-0.3-2.1,0.6-2.7l11.5-7.2c0.9-0.6,2.1-0.3,2.7,0.6
			c0.6,0.9,0.3,2.1-0.6,2.7l-11.5,7.2C350.5,94.5,350.1,94.6,349.7,94.6z"/>
	</g>
	<g>
		<path class="st4" d="M349.7,94.6c-1.1,0-2-0.9-2-2v-7.2c0-1.1,0.9-2,2-2c1.1,0,2,0.9,2,2v7.2C351.7,93.8,350.8,94.6,349.7,94.6z"
			/>
	</g>
	<g>
		<path class="st5" d="M349.7,87.4H338c-1.1,0-2-0.9-2-2c0-1.1,0.9-2,2-2h11.8c1.1,0,2,0.9,2,2C351.7,86.5,350.8,87.4,349.7,87.4z"
			/>
	</g>
	<g>
		<g>
			<path class="st6" d="M340,91.6l-2.3,0.9l-0.3-0.9l3.1-1.2l0.6,1.6l-0.7,0.3L340,91.6z M339.4,90l0.7-0.3l0.2,0.6l-0.7,0.3
				L339.4,90z"/>
			<path class="st6" d="M339.8,94.3l-0.4-0.7c-0.3,0.2-0.4,0.4-0.3,0.6l-0.5,0.3c-0.5-0.9,0-1.4,0.5-1.7c0.5-0.3,1.2-0.5,1.8,0.4
				l-0.5,0.3c-0.1-0.2-0.3-0.2-0.6-0.1l0.4,0.7c0.2-0.2,0.3-0.3,0.2-0.5l0.5-0.3c0.6,1.1-0.3,1.6-0.7,1.8L339.8,94.3z M338.6,94.6
				l0.5-0.3c0.1,0.2,0.3,0.2,0.4,0.1l0.5,0.8C339.6,95.4,339.1,95.3,338.6,94.6z"/>
			<path class="st6" d="M340.6,95.3c0.5-0.4,1.1-0.7,1.8,0.1l-0.6,0.5c-0.2-0.1-0.4-0.1-0.6,0.1c-0.3,0.2-0.3,0.4-0.2,0.6l-0.6,0.5
				C339.8,96.3,340.1,95.7,340.6,95.3z M340.5,97.2l0.6-0.5c0.1,0.1,0.3,0.1,0.5,0l0.6,0.7C341.6,97.9,341,97.8,340.5,97.2z
				 M341.8,96.5c0.2-0.2,0.2-0.4,0.1-0.5l0.6-0.5c0.5,0.6,0.5,1.2-0.1,1.7L341.8,96.5z"/>
			<path class="st6" d="M343.4,98.1l-0.9,1.1l-0.7-0.6l2.3-2.8l0.7,0.6l-0.8,1c0.1,0,0.2,0,0.3,0l-0.4,0.5
				C343.8,97.8,343.7,97.9,343.4,98.1z M343.2,99.8l-0.2-0.2l0.9-1.1c0.2-0.3,0.2-0.4,0.1-0.5l0.5-0.6c0.1,0,0.1,0.1,0.2,0.1
				c0.7,0.6,0.4,1,0,1.5l-0.9,1.1L343.2,99.8z"/>
			<path class="st6" d="M346,99.8l-0.7,1.3l-0.8-0.5l1.2-2.3l0.5,0.3l0,0.3c0.2-0.1,0.4-0.1,0.6,0l-0.3,0.6
				C346.2,99.5,346.1,99.6,346,99.8z M346,101.5l-0.2-0.1l0.7-1.3c0.1-0.3,0.1-0.4,0-0.5l0.4-0.7c0,0,0.1,0,0.1,0.1
				c0.8,0.4,0.7,0.9,0.4,1.5l-0.7,1.3L346,101.5z"/>
			<path class="st6" d="M347.7,100.9c0.2-0.6,0.6-1.2,1.6-0.9l-0.2,0.7c-0.2,0-0.4,0.1-0.5,0.4c-0.1,0.4-0.1,0.6,0.2,0.7l-0.2,0.7
				C347.5,102.2,347.5,101.5,347.7,100.9z M348.6,102.6l0.2-0.7c0.2,0,0.4-0.1,0.5-0.4c0.1-0.3,0.1-0.5-0.1-0.6l0.2-0.7
				c0.9,0.3,0.9,1.1,0.7,1.6C350,102.3,349.5,102.9,348.6,102.6z"/>
			<path class="st6" d="M350.6,103.1l-0.3,0l0.6-3.6l0.9,0.2l-0.6,3.6L350.6,103.1z"/>
			<path class="st6" d="M351.9,102c0-0.6,0.3-1.3,1.3-1.3l0,0.8c-0.2,0-0.4,0.2-0.4,0.5c0,0.4,0.1,0.6,0.3,0.6l0,0.8
				C352.1,103.3,351.9,102.6,351.9,102z M353.3,103.4l0-0.8c0.2,0,0.3-0.2,0.4-0.6c0-0.4-0.1-0.5-0.3-0.6l0-0.8
				c1,0.1,1.2,0.8,1.2,1.4C354.5,102.7,354.3,103.4,353.3,103.4z"/>
			<path class="st6" d="M356.6,104.3l-0.1-0.7c0.3,0,0.3-0.2,0.3-0.3c0-0.4-1.7,0.2-1.8-0.5c0-0.2,0.1-0.4,0.4-0.5
				c-0.4-0.1-0.5-0.4-0.5-0.6c-0.1-0.5,0.1-1,1-1.2l0.1,0.7c-0.2,0-0.2,0.2-0.2,0.3c0,0.2,0.1,0.3,0.3,0.3l0.1,0.5c0,0-0.1,0-0.1,0
				c-0.1,0-0.2,0.1-0.2,0.1c0,0.1,0.1,0.1,0.3,0.1c0.5,0,0.9,0,1.1,0c0.3,0.1,0.4,0.2,0.4,0.5C357.8,103.7,357.6,104.1,356.6,104.3z
				 M355,103.5l0.9-0.1c0,0.1,0.1,0.2,0.3,0.2l0.1,0.7C355.4,104.4,355.1,104.1,355,103.5z M357.4,100.9L357,101
				c0.2,0.1,0.4,0.2,0.4,0.5c0.1,0.4-0.1,0.8-1.1,0.9l-0.1-0.5c0.2,0,0.2-0.2,0.2-0.4c0-0.2-0.1-0.3-0.3-0.3l-0.1-0.7l0,0l1.2-0.2
				L357.4,100.9z"/>
			<path class="st6" d="M359.2,102.6c-0.9,0.3-1.1-0.2-1.3-0.8l-0.5-1.4l0.7-0.2l0.2-0.1l0.4,1.3c0.1,0.3,0.2,0.4,0.3,0.3l0.2,0.7
				C359.3,102.5,359.3,102.6,359.2,102.6z M358.3,103.1l0.9-0.3c0.1,0.2,0.1,0.3,0.4,0.2l0.2,0.5
				C358.8,103.8,358.5,103.6,358.3,103.1z M359.9,103.5l-0.2-0.5c0.2-0.1,0.2-0.3,0.1-0.5l-0.1-0.3c0,0.1-0.1,0.2-0.2,0.3l-0.2-0.7
				c0.2-0.1,0.2-0.2,0.1-0.5l-0.4-1.3l0.9-0.3l0.8,2.5C360.8,102.5,360.9,103.1,359.9,103.5z"/>
			<path class="st6" d="M361.7,98.3c-0.3,0.2-0.5,0.3-0.8-0.1c-0.2-0.4,0-0.5,0.2-0.7c0.3-0.2,0.5-0.3,0.8,0.1
				C362.2,97.9,362,98.1,361.7,98.3z M363.1,100.8l-0.2,0.2l-1.4-2.2l0.8-0.5l1.4,2.2L363.1,100.8z"/>
			<path class="st6" d="M364,98.4l0.9,1.1l-0.7,0.6l-1.7-2l0.4-0.3l0.3,0.1c0-0.2,0.1-0.4,0.2-0.6l0.5,0.6
				C363.8,98,363.8,98.1,364,98.4z M365.6,98.9l-0.2,0.2l-0.9-1.1c-0.2-0.2-0.3-0.3-0.4-0.2l-0.5-0.6c0,0,0.1-0.1,0.1-0.1
				c0.7-0.6,1.1-0.3,1.5,0.2l1,1.1L365.6,98.9z"/>
			<path class="st6" d="M369,94.9l-2.4-0.8l0.8,0.9l0.3-0.4l0.7,0.2l-0.5,0.7l0.4,0.4l-0.6,0.9l-2.1-2.8l0.6-1l3.4,0.9L369,94.9z"/>
			<path class="st6" d="M370.5,91.6l-2.5-0.3l1,0.8l0.2-0.5l0.7,0.1l-0.3,0.8l0.4,0.4l-0.4,1l-2.6-2.3l0.4-1.1l3.5,0.2L370.5,91.6z"
				/>
		</g>
	</g>
	<rect id="_x3C_Slice_x3E__3_" x="335.8" y="66.1" class="st7" width="36" height="38.9"/>
	<rect id="_x3C_Slice_x3E__2_" x="335.8" y="66" class="st7" width="36.2" height="39.1"/>
</g>
</svg>
